<mxfile host="Electron" modified="2024-10-22T16:41:23.315Z" agent="Mozilla/5.0 (Windows NT 10.0; Win64; x64) AppleWebKit/537.36 (KHTML, like Gecko) draw.io/24.1.0 Chrome/120.0.6099.109 Electron/28.1.0 Safari/537.36" etag="ylpVOXwQf1HrLfD5OQpk" version="24.1.0" type="device">
  <diagram name="第 1 页" id="8PR5-r_hy2VI4YNmM1-b">
    <mxGraphModel dx="1100" dy="990" grid="1" gridSize="10" guides="1" tooltips="1" connect="1" arrows="1" fold="1" page="1" pageScale="1" pageWidth="827" pageHeight="1169" math="0" shadow="0">
      <root>
        <mxCell id="0" />
        <mxCell id="1" parent="0" />
        <mxCell id="zDb2DI3IMVBsfnI8sfu5-25" style="edgeStyle=orthogonalEdgeStyle;rounded=0;orthogonalLoop=1;jettySize=auto;html=1;exitX=0.786;exitY=1.015;exitDx=0;exitDy=0;exitPerimeter=0;" edge="1" parent="1" source="zDb2DI3IMVBsfnI8sfu5-3" target="zDb2DI3IMVBsfnI8sfu5-2">
          <mxGeometry relative="1" as="geometry" />
        </mxCell>
        <mxCell id="zDb2DI3IMVBsfnI8sfu5-26" value="compiled code" style="edgeLabel;html=1;align=center;verticalAlign=middle;resizable=0;points=[];" vertex="1" connectable="0" parent="zDb2DI3IMVBsfnI8sfu5-25">
          <mxGeometry x="-0.4818" y="-4" relative="1" as="geometry">
            <mxPoint y="12" as="offset" />
          </mxGeometry>
        </mxCell>
        <mxCell id="zDb2DI3IMVBsfnI8sfu5-3" value="" style="rounded=1;whiteSpace=wrap;html=1;" vertex="1" parent="1">
          <mxGeometry x="70" y="270" width="610" height="200" as="geometry" />
        </mxCell>
        <mxCell id="zDb2DI3IMVBsfnI8sfu5-1" value="CodeEditor" style="rounded=1;whiteSpace=wrap;html=1;direction=south;" vertex="1" parent="1">
          <mxGeometry x="70" y="530" width="190" height="185" as="geometry" />
        </mxCell>
        <mxCell id="zDb2DI3IMVBsfnI8sfu5-2" value="preview" style="rounded=1;whiteSpace=wrap;html=1;" vertex="1" parent="1">
          <mxGeometry x="420" y="530" width="260" height="185" as="geometry" />
        </mxCell>
        <mxCell id="zDb2DI3IMVBsfnI8sfu5-9" value="VueSfcPlayground" style="text;html=1;align=center;verticalAlign=middle;whiteSpace=wrap;rounded=0;" vertex="1" parent="1">
          <mxGeometry x="110" y="290" width="60" height="30" as="geometry" />
        </mxCell>
        <mxCell id="zDb2DI3IMVBsfnI8sfu5-22" value="@vue/compile-sfc" style="text;html=1;align=center;verticalAlign=middle;whiteSpace=wrap;rounded=0;" vertex="1" parent="1">
          <mxGeometry x="296" y="360" width="160" height="30" as="geometry" />
        </mxCell>
        <mxCell id="zDb2DI3IMVBsfnI8sfu5-23" style="edgeStyle=orthogonalEdgeStyle;rounded=0;orthogonalLoop=1;jettySize=auto;html=1;exitX=0;exitY=0.5;exitDx=0;exitDy=0;entryX=0.153;entryY=1.012;entryDx=0;entryDy=0;entryPerimeter=0;" edge="1" parent="1" source="zDb2DI3IMVBsfnI8sfu5-1" target="zDb2DI3IMVBsfnI8sfu5-3">
          <mxGeometry relative="1" as="geometry">
            <mxPoint x="170" y="480" as="targetPoint" />
          </mxGeometry>
        </mxCell>
        <mxCell id="zDb2DI3IMVBsfnI8sfu5-24" value="code" style="edgeLabel;html=1;align=center;verticalAlign=middle;resizable=0;points=[];" vertex="1" connectable="0" parent="zDb2DI3IMVBsfnI8sfu5-23">
          <mxGeometry x="0.0824" y="-1" relative="1" as="geometry">
            <mxPoint as="offset" />
          </mxGeometry>
        </mxCell>
      </root>
    </mxGraphModel>
  </diagram>
</mxfile>
